<svg xmlns="http://www.w3.org/2000/svg" viewBox="0 0 64 64" role="img" aria-label="Ocean Cleanup favicon">
  <defs>
    <linearGradient id="bg" x1="0" y1="0" x2="1" y2="1">
      <stop offset="0%" stop-color="#0b1f33" />
      <stop offset="100%" stop-color="#123d66" />
    </linearGradient>
    <linearGradient id="wave" x1="0" y1="0" x2="1" y2="0">
      <stop offset="0%" stop-color="#4dd0e1" />
      <stop offset="100%" stop-color="#2bb3c0" />
    </linearGradient>
  </defs>
  <rect width="64" height="64" rx="16" fill="url(#bg)" />
  <circle cx="48" cy="18" r="4" fill="#f2c94c" />
  <path d="M10 34c5.5 0 7.5-6 13-6s7.5 6 13 6 7.5-6 13-6 7.5 6 13 6" fill="none" stroke="url(#wave)" stroke-width="4" stroke-linecap="round" stroke-linejoin="round" />
  <path d="M16 43c4.5 0 6-4 10-4s5.5 4 10 4 5.5-4 10-4 5.5 4 12 4" fill="none" stroke="#e9f9fb" stroke-opacity="0.95" stroke-width="3" stroke-linecap="round" stroke-linejoin="round" />
  <path d="M22 24l5 5 12-13" fill="none" stroke="#f2c94c" stroke-width="4" stroke-linecap="round" stroke-linejoin="round" />
</svg>
